<mxfile host="app.diagrams.net" modified="2023-04-17T01:02:28.644Z" agent="Mozilla/5.0 (Macintosh; Intel Mac OS X 10_15_7) AppleWebKit/537.36 (KHTML, like Gecko) Chrome/112.0.0.0 Safari/537.36" etag="AY1onHbIBxpSjDZU1ipp" version="21.1.8" type="github">
  <diagram name="第 1 页" id="ylQiIapKLuFGazXnUSWv">
    <mxGraphModel dx="984" dy="585" grid="1" gridSize="10" guides="1" tooltips="1" connect="1" arrows="1" fold="1" page="1" pageScale="1" pageWidth="827" pageHeight="1169" math="0" shadow="0">
      <root>
        <mxCell id="0" />
        <mxCell id="1" parent="0" />
        <mxCell id="sdYyX6AsqRZzDsCQbQxA-2" value="全民数字素养与技能提升现状调查研究" style="rounded=1;whiteSpace=wrap;html=1;fontSize=17;" vertex="1" parent="1">
          <mxGeometry x="50" y="195" width="30" height="360" as="geometry" />
        </mxCell>
        <mxCell id="sdYyX6AsqRZzDsCQbQxA-4" value="研究内容" style="rounded=1;whiteSpace=wrap;html=1;fontSize=17;" vertex="1" parent="1">
          <mxGeometry x="140" y="270" width="30" height="210" as="geometry" />
        </mxCell>
        <mxCell id="sdYyX6AsqRZzDsCQbQxA-5" value="阶段性成果" style="rounded=1;whiteSpace=wrap;html=1;fontSize=17;" vertex="1" parent="1">
          <mxGeometry x="140" y="525" width="30" height="120" as="geometry" />
        </mxCell>
        <mxCell id="sdYyX6AsqRZzDsCQbQxA-7" value="研究方法" style="rounded=1;whiteSpace=wrap;html=1;fontSize=17;" vertex="1" parent="1">
          <mxGeometry x="140" y="90" width="30" height="120" as="geometry" />
        </mxCell>
        <mxCell id="sdYyX6AsqRZzDsCQbQxA-9" value="" style="rounded=1;whiteSpace=wrap;html=1;dashed=1;" vertex="1" parent="1">
          <mxGeometry x="220" y="280" width="240" height="170" as="geometry" />
        </mxCell>
        <mxCell id="sdYyX6AsqRZzDsCQbQxA-10" value="" style="endArrow=none;dashed=1;html=1;rounded=0;entryX=1;entryY=0.25;entryDx=0;entryDy=0;exitX=0;exitY=0.25;exitDx=0;exitDy=0;" edge="1" parent="1" source="sdYyX6AsqRZzDsCQbQxA-9" target="sdYyX6AsqRZzDsCQbQxA-9">
          <mxGeometry width="50" height="50" relative="1" as="geometry">
            <mxPoint x="390" y="370" as="sourcePoint" />
            <mxPoint x="440" y="320" as="targetPoint" />
          </mxGeometry>
        </mxCell>
      </root>
    </mxGraphModel>
  </diagram>
</mxfile>
